<svg height="506pt" viewBox="-22 0 506 506.461" width="506pt" xmlns="http://www.w3.org/2000/svg"><path d="m116.210938 211.4375v205.863281c0 5.519531-4.480469 10-10 10h-91.980469c-5.519531 0-10-4.480469-10-10v-205.863281c0-5.519531 4.480469-10 10-10h91.980469c5.519531 0 10 4.480469 10 10zm0 0" fill="#1c868e"/><path d="m247.449219 114.320312v302.980469c0 5.519531-4.480469 10-10 10h-111.238281c-5.519532 0-10-4.480469-10-10v-302.980469c0-5.542968 4.480468-10 10-10h111.238281c5.519531 0 10 4.457032 10 10zm0 0" fill="#d8d6d7"/><path d="m356.25 268.039062v47.738282c-2.621094.480468-5.238281 1.042968-7.839844 1.683594l-25.601562 6.316406-15.558594 3.839844c-2.71875.660156-4.738281 2.863281-5.257812 5.523437-.101563.457031-.140626.917969-.140626 1.378906v92.78125h-44.402343c-5.519531 0-10-4.480469-10-10v-149.261719c0-5.519531 4.480469-10 10-10h88.800781c5.519531 0 10 4.480469 10 10zm0 0" fill="#56c1b3"/><path d="m116.210938 211.4375v187.582031h-73.699219c-5.519531 0-10-4.480469-10-10v-187.582031h73.699219c5.519531 0 10 4.480469 10 10zm0 0" fill="#40c4df"/><path d="m247.449219 114.320312v284.699219h-92.957031c-5.523438 0-10-4.480469-10-10v-284.699219h92.957031c5.519531 0 10 4.457032 10 10zm0 0" fill="#fff"/><path d="m356.25 268.039062v47.738282c-2.621094.480468-5.238281 1.042968-7.839844 1.683594l-25.601562 6.316406-15.558594 3.839844c-2.71875.660156-4.738281 2.863281-5.257812 5.523437-.101563.457031-.140626.917969-.140626 1.378906v64.5h-8.980468c-9.460938 0-17.140625-4.480469-17.140625-10v-130.980469h70.519531c5.519531 0 10 4.480469 10 10zm0 0" fill="#7befe4"/><path d="m226.851562 79.039062v15.28125c0 5.519532-4.480468 10-10 10h-70.042968c-5.519532 0-10-4.480468-10-10v-15.28125c0-5.519531 4.480468-10 10-10h70.042968c5.519532 0 10 4.480469 10 10zm0 0" fill="#1c868e"/><path d="m452.152344 327.617188-41.160156-10.15625c-17.941407-4.441407-36.621094-5-54.742188-1.683594-2.621094.480468-5.238281 1.042968-7.839844 1.683594l-18.28125 4.519531-7.320312 1.796875-15.558594 3.839844c-2.71875.660156-4.738281 2.863281-5.257812 5.523437-.101563.457031-.140626.917969-.140626 1.378906v115.257813c0 2.421875 1.21875 4.683594 3.257813 5.980468l70.742187 45.582032c2.339844 1.5 5.359376 1.5 7.699219 0l21.738281-14 49-31.582032c2.042969-1.296874 3.261719-3.558593 3.261719-5.980468v-115.257813c0-3.261719-2.242187-6.121093-5.398437-6.902343zm0 0" fill="#d8d6d7"/><path d="m452.152344 327.617188-41.160156-10.15625c-17.941407-4.441407-36.621094-5-54.742188-1.683594-2.621094.480468-5.238281 1.042968-7.839844 1.683594l-18.28125 4.519531v112.679687c0 2.660156 1.339844 5.140625 3.582032 6.558594l71.578124 46.121094 49-31.582032c2.042969-1.296874 3.261719-3.558593 3.261719-5.980468v-115.257813c0-3.261719-2.242187-6.121093-5.398437-6.902343zm0 0" fill="#fff"/><path d="m93.210938 231.679688v9.5c0 5.519531-4.460938 10-10 10h-46c-5.519532 0-10-4.480469-10-10v-9.5c0-5.519532 4.480468-10 10-10h46c5.539062 0 10 4.480468 10 10zm0 0" fill="#56c1b3"/><path d="m93.210938 283.640625v9.5c0 5.519531-4.460938 10-10 10h-46c-5.519532 0-10-4.480469-10-10v-9.5c0-5.523437 4.480468-10 10-10h46c5.539062 0 10 4.476563 10 10zm0 0" fill="#56c1b3"/><path d="m93.210938 335.597656v9.5c0 5.519532-4.460938 10-10 10h-46c-5.519532 0-10-4.480468-10-10v-9.5c0-5.519531 4.480468-10 10-10h46c5.539062 0 10 4.480469 10 10zm0 0" fill="#56c1b3"/><path d="m93.210938 387.558594v9.480468c0 5.519532-4.460938 10-10 10h-46c-5.519532 0-10-4.480468-10-10v-9.480468c0-5.539063 4.480468-10 10-10h46c5.539062 0 10 4.460937 10 10zm0 0" fill="#56c1b3"/><path d="m172.152344 132.800781v266c0 5.519531-4.460938 10-10 10h-14.660156c-5.523438 0-10-4.480469-10-10v-266c0-5.523437 4.476562-10 10-10h14.660156c5.539062 0 10 4.476563 10 10zm0 0" fill="#1c868e"/><path d="m226.152344 132.800781v266c0 5.519531-4.460938 10-10 10h-14.660156c-5.523438 0-10-4.480469-10-10v-266c0-5.523437 4.476562-10 10-10h14.660156c5.539062 0 10 4.476563 10 10zm0 0" fill="#1c868e"/><path d="m322.851562 301.140625v22c0 .21875 0 .4375-.042968.636719l-15.558594 3.839844c-2.71875.660156-4.738281 2.863281-5.257812 5.523437h-11.140626c-5.519531 0-10-4.480469-10-10v-22c0-5.523437 4.480469-10 10-10h22c5.519532 0 10 4.476563 10 10zm0 0" fill="#1c868e"/><path d="m301.851562 352.199219v42h-11c-5.519531 0-10-4.480469-10-10v-22c0-5.519531 4.480469-10 10-10zm0 0" fill="#1c868e"/><path d="m226.851562 79.039062v11.121094h-65.902343c-5.519531 0-10-4.460937-10-10v-11.121094h65.902343c5.519532 0 10 4.480469 10 10zm0 0" fill="#40c4df"/><path d="m93.210938 231.679688v5.359374h-41.839844c-5.539063 0-10-4.480468-10-10v-5.359374h41.839844c5.539062 0 10 4.480468 10 10zm0 0" fill="#7befe4"/><path d="m93.210938 283.640625v5.359375h-41.839844c-5.539063 0-10-4.480469-10-10v-5.359375h41.839844c5.539062 0 10 4.476563 10 10zm0 0" fill="#7befe4"/><path d="m93.210938 335.597656v5.363282h-41.839844c-5.539063 0-10-4.480469-10-10v-5.363282h41.839844c5.539062 0 10 4.480469 10 10zm0 0" fill="#7befe4"/><path d="m93.210938 387.558594v5.339844h-41.839844c-5.539063 0-10-4.480469-10-10v-5.339844h41.839844c5.539062 0 10 4.460937 10 10zm0 0" fill="#7befe4"/><path d="m172.152344 132.800781v261.859375h-10.523438c-5.519531 0-10-4.480468-10-10v-261.859375h10.523438c5.539062 0 10 4.476563 10 10zm0 0" fill="#40c4df"/><path d="m226.152344 132.800781v261.859375h-10.523438c-5.519531 0-10-4.480468-10-10v-261.859375h10.523438c5.539062 0 10 4.476563 10 10zm0 0" fill="#40c4df"/><path d="m322.851562 301.140625v17.859375h-17.859374c-5.523438 0-10-4.480469-10-10v-17.859375h17.859374c5.519532 0 10 4.476563 10 10zm0 0" fill="#40c4df"/><path d="m301.851562 352.199219v27.359375c-3.980468-1.320313-6.859374-5.078125-6.859374-9.5v-17.859375zm0 0" fill="#40c4df"/><path d="m424.25 383.960938c0 2.359374-.917969 4.738281-2.71875 6.539062l-48.199219 48.199219c-3.621093 3.621093-9.480469 3.621093-13.101562 0l-22.359375-22.359375c-3.621094-3.621094-3.621094-9.480469 0-13.101563l.019531-.019531c.140625-.140625.28125-.28125.441406-.417969 3.617188-3.183593 9.179688-3.042969 12.636719.417969l9.28125 9.28125c3.621094 3.617188 9.480469 3.617188 13.101562 0l35.078126-35.082031c3.460937-3.457031 8.980468-3.617188 12.621093-.4375.160157.136719.320313.277343.480469.4375 1.800781 1.800781 2.71875 4.160156 2.71875 6.542969zm0 0" fill="#d73735"/><path d="m421.050781 376.980469-47.71875 47.71875c-3.621093 3.621093-9.480469 3.621093-13.101562 0l-21.898438-21.898438c3.617188-3.183593 9.179688-3.042969 12.636719.417969l9.28125 9.28125c3.621094 3.617188 9.480469 3.617188 13.101562 0l35.078126-35.082031c3.460937-3.457031 8.980468-3.617188 12.621093-.4375zm0 0" fill="#f85252"/><g fill="#491352"><path d="m453.105469 323.738281-41.15625-10.160156c-16.78125-4.15625-34.550781-4.964844-51.699219-2.464844v-43.074219c0-7.71875-6.285156-14-14-14h-88.800781c-2.148438 0-4.179688.503907-6.003907 1.375v-141.101562c0-7.722656-6.28125-14-14-14h-7.972656c.871094-1.824219 1.371094-3.851562 1.371094-6v-15.277344c0-7.71875-6.28125-14-14-14h-31.015625v-61.066406c0-5.289062-8-5.296875-8 0v61.066406h-31.019531c-7.71875 0-14 6.28125-14 14v15.273438c0 2.148437.5 4.179687 1.371094 6h-7.972657c-7.71875 0-14 6.28125-14 14v84.5c-1.824219-.871094-3.851562-1.371094-6-1.371094h-91.976562c-7.71875 0-14 6.28125-14 14v205.859375c0 7.71875 6.28125 14 14 14h91.976562c3.914063 0 7.457031-1.621094 10-4.222656 2.542969 2.601562 6.082031 4.222656 10 4.222656h111.238281c3.917969 0 7.457032-1.621094 10-4.222656 2.546876 2.605469 6.085938 4.226562 10.003907 4.226562h40.402343v18.480469c0 3.816406 1.910157 7.316406 5.09375 9.339844l70.746094 45.585937c1.824219 1.171875 3.914063 1.753907 6.007813 1.753907s4.1875-.585938 6.015625-1.761719l70.726562-45.566407c3.199219-2.042968 5.109375-5.539062 5.109375-9.355468v-115.257813c0-5.121093-3.472656-9.558593-8.445312-10.78125zm-312.296875-229.425781v-15.277344c0-3.304687 2.691406-6 6-6h70.035156c3.308594 0 6 2.695313 6 6v15.277344c0 3.304688-2.691406 6-6 6h-70.035156c-3.308594 0-6-2.695312-6-6zm-34.601563 328.984375h-91.976562c-3.308594 0-6-2.695313-6-6v-205.859375c0-3.304688 2.691406-6 6-6h91.976562c3.308594 0 6 2.695312 6 6v205.859375c0 3.304687-2.691406 6-6 6zm137.238281-6c0 3.304687-2.691406 6-6 6h-111.238281c-3.308593 0-6-2.695313-6-6v-302.984375c0-3.308594 2.691407-6 6-6h111.238281c3.308594 0 6 2.691406 6 6zm14.003907 6.003906c-3.308594 0-6-2.695312-6-6v-149.261719c0-3.308593 2.691406-6 6-6h88.800781c3.304688 0 6 2.691407 6 6v44.449219c-.117188.023438-.226562.050781-.34375.078125-1.5.316406-2.992188.648438-4.457031 1.011719l-20.601563 5.085937v-17.523437c0-7.71875-6.28125-14-14-14h-22c-7.71875 0-14 6.28125-14 14v22c0 7.71875 6.28125 14 14 14h7v11.058594h-7c-7.71875 0-14 6.28125-14 14v22c0 7.722656 6.28125 14 14 14h7v25.101562zm47.117187-98.972656c-2.3125.996094-4.1875 2.753906-5.324218 4.8125h-8.390626c-3.308593 0-6-2.695313-6-6v-22c0-3.308594 2.691407-6 6-6h22c3.308594 0 6 2.691406 6 6v19.496094c-13.464843 3.363281-12.804687 3.054687-14.285156 3.691406zm-6.714844 65.871094h-7c-3.308593 0-6-2.691407-6-6v-22c0-3.308594 2.691407-6 6-6h7zm155.699219 59.582031c0 1.070312-.527343 2.042969-1.425781 2.617188l-70.734375 45.578124c-1.03125.660157-2.355469.65625-3.375.003907l-70.757813-45.59375c-.878906-.5625-1.40625-1.535157-1.40625-2.605469 0-30.265625 0-61.027344 0-115.261719 0-.207031.015626-.382812.0625-.613281.230469-1.175781 1.125-2.121094 2.292969-2.402344l18.015625-4.445312 23.140625-5.710938c2.484375-.613281 5.042969-1.160156 7.605469-1.628906 7.457031-1.367188 15.070312-2.046875 22.691406-2.046875 10.238282 0 20.488282 1.230469 30.371094 3.675781l41.160156 10.160156c1.367188.335938 2.359375 1.605469 2.359375 3.015626zm0 0"/><path d="m83.21875 217.6875h-46c-7.71875 0-14 6.28125-14 14v9.496094c0 7.722656 6.28125 14 14 14h46c7.71875 0 14-6.277344 14-14v-9.496094c0-7.71875-6.28125-14-14-14zm6 23.496094c0 3.308594-2.691406 6-6 6h-46c-3.308594 0-6-2.691406-6-6v-9.496094c0-3.308594 2.691406-6 6-6h46c3.308594 0 6 2.691406 6 6zm0 0"/><path d="m83.21875 269.644531h-46c-7.71875 0-14 6.277344-14 14v9.496094c0 7.71875 6.28125 14 14 14h46c7.71875 0 14-6.28125 14-14v-9.496094c0-7.722656-6.28125-14-14-14zm6 23.492188c0 3.308593-2.691406 6-6 6h-46c-3.308594 0-6-2.691407-6-6v-9.496094c0-3.308594 2.691406-6 6-6h46c3.308594 0 6 2.691406 6 6zm0 0"/><path d="m83.21875 321.597656h-46c-7.71875 0-14 6.28125-14 14v9.492188c0 7.722656 6.28125 14 14 14h46c7.71875 0 14-6.277344 14-14v-9.492188c0-7.71875-6.28125-14-14-14zm6 23.492188c0 3.308594-2.691406 6-6 6h-46c-3.308594 0-6-2.691406-6-6v-9.492188c0-3.308594 2.691406-6 6-6h46c3.308594 0 6 2.691406 6 6zm0 0"/><path d="m83.21875 373.550781h-46c-7.71875 0-14 6.28125-14 14v9.496094c0 7.71875 6.28125 14 14 14h46c7.71875 0 14-6.28125 14-14v-9.496094c0-7.71875-6.28125-14-14-14zm6 23.496094c0 3.304687-2.691406 6-6 6h-46c-3.308594 0-6-2.695313-6-6v-9.496094c0-3.308593 2.691406-6 6-6h46c3.308594 0 6 2.691407 6 6zm0 0"/><path d="m162.160156 118.804688h-14.664062c-7.722656 0-14 6.277343-14 14v266c0 7.71875 6.277344 14 14 14h14.664062c7.71875 0 14-6.28125 14-14v-266c0-7.722657-6.28125-14-14-14zm6 280c0 3.304687-2.691406 6-6 6h-14.664062c-3.308594 0-6-2.695313-6-6v-266c0-3.308594 2.691406-6 6-6h14.664062c3.308594 0 6 2.691406 6 6zm0 0"/><path d="m216.160156 118.804688h-14.664062c-7.722656 0-14 6.277343-14 14v266c0 7.71875 6.277344 14 14 14h14.664062c7.71875 0 14-6.28125 14-14v-266c0-7.722657-6.28125-14-14-14zm6 280c0 3.304687-2.691406 6-6 6h-14.664062c-3.308594 0-6-2.695313-6-6v-266c0-3.308594 2.691406-6 6-6h14.664062c3.308594 0 6 2.691406 6 6zm0 0"/><path d="m405.601562 374.589844-35.078124 35.082031c-2.054688 2.050781-5.390626 2.050781-7.445313 0l-9.28125-9.28125c-5.164063-5.164063-13.574219-5.164063-18.757813.019531-5.1875 5.1875-5.1875 13.570313 0 18.757813l22.363282 22.359375c5.167968 5.167968 13.585937 5.171875 18.753906 0l48.203125-48.199219c2.472656-2.472656 3.890625-5.886719 3.890625-9.367187 0-11.714844-14.300781-17.71875-22.648438-9.371094zm13.101563 13.082031-48.203125 48.199219c-2.050781 2.050781-5.386719 2.050781-7.445312 0l-22.359376-22.363282c-2.035156-2.03125-2.09375-5.347656.019532-7.460937 2.046875-2.046875 5.378906-2.046875 7.425781 0l9.28125 9.28125c5.171875 5.171875 13.585937 5.171875 18.757813 0l35.078124-35.078125c4.96875-4.96875 12.316407 2.546875 7.445313 7.421875zm0 0"/></g></svg>